<?xml version="1.0" encoding="UTF-8" standalone="no"?>
<!-- Created with Inkscape (http://www.inkscape.org/) -->

<svg
   width="800"
   height="800"
   viewBox="0 0 800 800.00003"
   version="1.1"
   id="svg5"
   inkscape:version="1.1.2 (0a00cf5339, 2022-02-04)"
   sodipodi:docname="logo.svg"
   xmlns:inkscape="http://www.inkscape.org/namespaces/inkscape"
   xmlns:sodipodi="http://sodipodi.sourceforge.net/DTD/sodipodi-0.dtd"
   xmlns="http://www.w3.org/2000/svg"
   xmlns:svg="http://www.w3.org/2000/svg">
  <sodipodi:namedview
     id="namedview7"
     pagecolor="#ffffff"
     bordercolor="#666666"
     borderopacity="1.0"
     inkscape:pageshadow="2"
     inkscape:pageopacity="0.0"
     inkscape:pagecheckerboard="0"
     inkscape:document-units="mm"
     showgrid="false"
     units="px"
     inkscape:zoom="0.6592312"
     inkscape:cx="210.09321"
     inkscape:cy="561.25984"
     inkscape:window-width="1920"
     inkscape:window-height="990"
     inkscape:window-x="0"
     inkscape:window-y="28"
     inkscape:window-maximized="1"
     inkscape:current-layer="layer1" />
  <defs
     id="defs2" />
  <g
     inkscape:label="Layer 1"
     inkscape:groupmode="layer"
     id="layer1">
    <g
       id="g910"
       transform="matrix(2.3513387,0,0,2.3513387,-599.6078,-642.11411)"
       style="fill:#ef3945;fill-opacity:1"
       inkscape:export-filename="/home/adipurnm/Documents/Work/Freelance/landing page/saaspal-free-lite/saaspal-free-lite/logo.png"
       inkscape:export-xdpi="96"
       inkscape:export-ydpi="96">
      <path
         style="fill:#ef3945;fill-opacity:1;stroke-width:1.70739"
         d="m 368.46324,558.47672 c -9.20339,-4.28567 -16.94524,-12.18114 -20.6777,-21.08805 -1.61516,-3.85432 -2.30236,-13.86638 -2.30236,-33.54417 v -28.04999 l 6.24953,-5.48715 c 5.46797,-4.80094 7.12247,-5.37008 13.22964,-4.55094 4.63418,0.62158 8.27213,2.4383 10.82442,5.40551 3.48254,4.04869 3.8443,6.23287 3.8443,23.21023 0,21.39132 2.40361,29.63397 9.41924,32.30131 2.45422,0.93309 19.73591,1.69654 38.40375,1.69654 33.35268,0 34.02406,-0.071 38.69892,-4.09213 4.58357,-3.94263 4.78114,-4.7858 5.4072,-23.07691 0.77337,-22.59465 -0.50704,-32.76839 -4.79066,-38.06522 -3.11398,-3.85056 -3.88084,-3.92959 -46.43291,-4.78539 -48.29385,-0.97127 -48.79006,-1.08247 -59.95017,-13.43539 -8.63786,-9.56107 -10.25315,-17.29122 -9.49658,-45.44675 0.60625,-22.56121 0.9415,-24.53609 5.94272,-35.00809 7.61663,-15.94837 15.76335,-24.48106 30.14715,-31.57544 21.4949,-10.60172 45.90599,-11.85592 69.7003,-3.58107 24.81265,8.62898 41.13652,29.75939 43.63162,56.47888 0.92621,9.91849 0.68147,10.91089 -3.97642,16.12396 -3.79358,4.24576 -6.4405,5.59684 -11.23082,5.73263 -11.97388,0.33941 -16.9039,-4.85296 -19.24791,-20.27221 -2.20389,-14.49765 -12.95066,-25.0931 -28.64919,-28.24582 -19.57712,-3.93164 -36.89271,1.78293 -46.40716,15.31552 -5.02321,7.14461 -5.1932,8.00084 -5.1932,26.15809 0,16.61039 0.3816,19.05106 3.31428,21.19799 2.64776,1.93834 11.74692,2.43382 45.24595,2.46378 36.87532,0.033 42.75523,0.41257 48.76126,3.14792 9.08481,4.13754 19.10245,15.49528 20.8191,23.60417 0.75737,3.57753 1.35258,24.17614 1.32272,45.77468 -0.0464,33.55996 -0.47437,40.05201 -2.94317,44.64773 -4.27187,7.95218 -15.80511,17.05717 -24.32312,19.20203 -4.5613,1.14855 -25.70025,1.87841 -54.10986,1.86825 -45.32343,-0.0171 -46.86424,-0.1284 -55.23087,-4.0245 z m 51.7007,-45.04642 c -1.47469,-1.64336 -3.24904,-6.04564 -3.943,-9.78284 -0.69397,-3.73719 -2.67693,-9.11549 -4.40658,-11.95176 -8.58555,-14.07856 3.50592,-29.95076 18.76443,-24.63161 8.7763,3.05943 12.99277,14.22231 8.52521,22.57002 -1.0963,2.04844 -1.8283,7.3399 -1.62667,11.75879 0.2805,6.14732 -0.45438,8.8553 -3.12891,11.52983 -4.28414,4.28414 -10.59297,4.5099 -14.18448,0.50757 z"
         id="path920" />
      <path
         style="fill:#ef3945;fill-opacity:1;stroke-width:1.70739"
         d="m 377.92368,560.8864 c -14.00645,-3.07801 -23.82611,-11.02864 -29.26412,-23.69413 -4.50294,-10.4876 -4.6962,-56.13731 -0.26629,-62.89821 6.69778,-10.22209 22.45141,-10.6395 28.29349,-0.74965 2.32861,3.94205 2.94431,9.09708 2.94431,24.65179 0,18.66767 0.2247,19.93448 4.42027,24.92061 l 4.42026,5.2532 h 37.14965 c 48.73213,0 45.35543,2.55009 45.35543,-34.25271 v -27.13589 l -4.7325,-4.73414 -4.73253,-4.73414 -41.36713,-0.4426 c -39.31646,-0.42066 -41.74725,-0.63688 -49.0348,-4.36178 -9.1726,-4.68841 -16.94148,-15.08622 -18.91872,-25.32067 -1.94648,-10.07519 -1.92436,-34.2745 0.0423,-46.28185 4.0532,-24.74661 21.05314,-44.03341 46.3207,-52.55187 15.19614,-5.12308 45.22173,-4.23092 60.25338,1.79033 20.25916,8.11522 36.16962,28.18384 40.26962,50.79397 3.08663,17.02181 -2.42061,26.00633 -15.94109,26.00633 -9.32379,0 -14.47982,-5.61869 -16.45136,-17.92764 -1.99697,-12.46757 -8.41966,-22.21292 -17.904,-27.16625 -5.52968,-2.88796 -9.91682,-3.56685 -23.04982,-3.56685 -19.34443,0 -26.56973,2.96767 -34.76316,14.27836 -5.03127,6.94547 -5.34951,8.32395 -5.94618,25.75627 -0.95293,27.84102 -4.67107,25.69823 44.61105,25.70958 52.91454,0.0121 59.01328,1.63165 69.71926,18.51322 l 4.91917,7.75673 v 41.81153 c 0,38.66407 -0.26351,42.35588 -3.50073,49.04306 -4.2963,8.87499 -13.4345,16.09206 -23.7387,18.74812 -8.81806,2.27296 -89.43144,2.91172 -99.10776,0.78528 z m 46.09965,-45.65305 c -4.22812,-1.5111 -6.82958,-5.97407 -6.82958,-11.71664 0,-3.0183 -1.68483,-7.56121 -3.80283,-10.25381 -5.60594,-7.1268 -5.18549,-16.99523 0.94891,-22.27182 13.2871,-11.42908 32.04364,2.89159 24.24977,18.51477 -1.87405,3.75662 -2.42502,7.61441 -1.70021,11.90453 0.90033,5.329 0.37779,7.04142 -3.25818,10.67738 -4.45496,4.45497 -5.23217,4.70942 -9.60788,3.14559 z"
         id="path918" />
      <path
         style="fill:#ef3945;fill-opacity:1;stroke-width:1.70739"
         d="m 370.2404,558.43919 c -8.89778,-3.88702 -16.59792,-11.71693 -20.74528,-21.09484 -3.6068,-8.15563 -4.01194,-11.56084 -4.01194,-33.72084 v -24.64913 l 5.29906,-6.03529 c 4.14971,-4.72626 6.58118,-6.03529 11.21031,-6.03529 14.15567,0 17.63852,6.57277 17.63852,33.28701 0,30.09144 0.853,30.57655 52.09205,29.62483 l 31.86908,-0.59194 4.23343,-4.92347 c 4.18017,-4.86154 4.22664,-5.26632 3.69224,-32.16547 l -0.54119,-27.24198 -4.79054,-4.11667 c -4.76819,-4.09746 -4.97934,-4.11685 -45.24596,-4.15417 -43.53539,-0.0403 -48.38496,-0.88272 -57.95474,-10.06662 -8.99667,-8.63391 -10.67268,-15.22102 -10.67268,-41.94605 0,-20.51751 0.59978,-26.57792 3.42849,-34.64276 6.4554,-18.40478 20.50069,-32.66904 39.25637,-39.86841 11.56268,-4.43834 36.292,-6.1245 49.51445,-3.37613 30.53233,6.34633 52.06095,29.48228 54.18169,58.22689 0.70281,9.52606 0.29886,11.75416 -2.85192,15.72992 -4.88192,6.16022 -13.57686,7.78023 -20.33418,3.78858 -5.0159,-2.96296 -6.77759,-7.05212 -9.75081,-22.63326 -1.40897,-7.38371 -10.03688,-17.09778 -18.66904,-21.01929 -9.5658,-4.34564 -33.26269,-4.31638 -42.69952,0.0527 -7.94918,3.68035 -15.2372,10.95639 -17.81902,17.78975 -0.99881,2.64356 -1.81601,13.11399 -1.81601,23.26761 0,15.08799 0.5158,18.88928 2.82299,20.80443 2.18333,1.81234 12.14542,2.44916 43.96541,2.81047 22.62833,0.25695 43.68532,0.87661 46.79331,1.37703 7.18726,1.15722 18.69841,11.45478 22.75049,20.35194 2.72085,5.97419 3.11043,11.74802 3.11043,46.09965 0,34.33997 -0.39037,40.12932 -3.10927,46.1143 -3.91045,8.60781 -13.5601,17.18696 -21.95315,19.51772 -9.89227,2.74712 -102.4115,2.27026 -108.89307,-0.56125 z m 49.77907,-46.85072 c -1.55415,-1.71731 -2.82572,-5.82555 -2.82572,-9.12942 0,-3.55635 -1.39313,-7.61334 -3.41479,-9.94433 -5.04724,-5.81952 -4.58145,-16.0625 0.98349,-21.62744 3.66833,-3.66833 5.50243,-4.25018 11.05128,-3.50593 11.3936,1.5282 16.94085,11.10916 12.51983,21.62367 -1.29716,3.08504 -2.35847,9.33554 -2.35847,13.89003 0,6.43961 -0.73432,8.67387 -3.30254,10.04834 -4.92395,2.63521 -9.48396,2.14691 -12.65308,-1.35492 z"
         id="path916" />
      <path
         style="fill:#ef3945;fill-opacity:1;stroke-width:1.70739"
         d="m 375.36259,559.2928 c -5.91995,-1.50722 -12.81742,-5.00241 -15.33132,-7.76892 -11.76896,-12.95151 -14.54809,-22.13082 -14.54809,-48.05153 0,-23.31594 1.97423,-29.7308 10.50804,-34.1438 6.55823,-3.3914 13.98778,-1.81989 18.49686,3.91248 2.96515,3.76958 3.4356,6.91543 3.4356,22.97358 0,20.03547 2.26647,28.79953 8.28018,32.01797 2.16279,1.15749 17.13028,1.84482 40.17311,1.84482 36.35643,0 36.77423,-0.0415 41.51657,-4.11883 4.76202,-4.09432 4.79402,-4.26092 5.37704,-27.99171 0.5168,-21.03618 0.17651,-24.7997 -2.86376,-31.67276 -2.32815,-5.26315 -4.74005,-8.09086 -7.41608,-8.69459 -2.1812,-0.4921 -22.02152,-1.09701 -44.08959,-1.34425 -43.04905,-0.4823 -46.22454,-1.08115 -55.69999,-10.50425 -9.11952,-9.06914 -10.89124,-15.65006 -10.84642,-40.28813 0.0585,-32.16781 4.90315,-46.19469 21.11649,-61.13963 11.85067,-10.92356 20.14562,-14.4804 40.69536,-17.44998 15.88658,-2.29572 35.11145,0.46506 48.58868,6.97755 19.51709,9.4311 34.17765,30.72424 35.96367,52.23404 0.8,9.63473 0.50015,10.90059 -3.53897,14.9397 -3.30746,3.30746 -6.16289,4.41304 -11.39783,4.41304 -9.43843,0 -14.46552,-5.12762 -15.98437,-16.30401 -2.37062,-17.44417 -12.27673,-27.977 -29.7176,-31.59771 -19.98579,-4.14903 -39.14493,1.81676 -48.81668,15.20059 -5.3021,7.33708 -5.36393,7.65845 -5.36393,27.87728 0,18.27537 0.35311,20.71341 3.31427,22.8836 2.65081,1.94274 11.61597,2.42898 44.78456,2.42898 45.60414,0 51.03576,0.93166 61.26841,10.50904 9.93113,9.29516 11.30814,16.99065 10.69601,59.77448 -0.59393,41.51171 -1.3441,45.0454 -11.46975,54.02934 -10.9251,9.69323 -10.92273,9.69286 -63.34755,10.03768 -26.76341,0.17604 -50.96572,-0.26679 -53.78292,-0.98407 z m 46.45815,-47.02846 c -1.34558,-1.34558 -2.96274,-5.67485 -3.59369,-9.6206 -0.63095,-3.94576 -2.65822,-9.09507 -4.50503,-11.44291 -7.71957,-9.81385 -1.04191,-22.58963 11.80717,-22.58963 5.29445,0 7.55996,0.9874 10.32198,4.49874 4.11253,5.22823 4.5711,12.22037 1.11126,16.9442 -1.65675,2.26201 -2.13247,5.81201 -1.49838,11.18118 0.81251,6.87981 0.42672,8.21879 -3.07463,10.67122 -4.91861,3.44513 -7.39744,3.52905 -10.56868,0.3578 z"
         id="path914" />
      <path
         style="fill:#ef3945;fill-opacity:1;stroke-width:1.70739"
         d="m 379.31094,557.93677 c 1.23252,-0.49321 2.70515,-0.43257 3.2725,0.13471 0.56735,0.56735 -0.44108,0.9709 -2.24095,0.89676 -1.98902,-0.082 -2.3936,-0.4865 -1.03155,-1.03154 z m -9.92423,-1.7588 c -4.56545,-1.6902 -6.64715,-4.10057 -5.69172,-6.59036 1.35263,-3.52491 3.81193,-2.99953 2.86735,0.61255 -0.56022,2.14226 0.6296,3.61132 4.00148,4.94055 4.78066,1.8846 3.69521,2.84107 -1.17711,1.03726 z m 109.27325,-0.38888 c 0,-0.99449 -1.10715,-1.80816 -2.46032,-1.80816 -5.61395,0 -3.51867,-2.57293 2.20306,-2.70527 3.42823,-0.0792 5.26795,0.17841 4.08826,0.57268 -1.17969,0.39427 -1.74341,1.36646 -1.2527,2.16043 0.4907,0.79398 0.11132,1.9262 -0.84306,2.51604 -0.95438,0.58983 -1.73524,0.25877 -1.73524,-0.73572 z m -21.34244,-3.51556 c -0.60897,-0.98534 0.97305,-1.69633 3.74087,-1.68125 3.72402,0.0203 4.22362,0.39611 2.23502,1.68125 -3.2804,2.11995 -4.66568,2.11995 -5.97589,0 z m -75.12536,-1.70739 c 0.58038,-0.93907 1.39405,-1.7074 1.80816,-1.7074 0.41412,0 0.75294,0.76833 0.75294,1.7074 0,0.93906 -0.81368,1.70739 -1.80816,1.70739 -0.99449,0 -1.33331,-0.76833 -0.75294,-1.70739 z m 108.41956,-3.10497 c 0,-2.06347 3.23927,-4.46926 4.42335,-3.2852 0.42975,0.42975 -0.3897,1.75326 -1.82099,2.94113 -1.62269,1.3467 -2.60236,1.47624 -2.60236,0.34407 z M 354.14408,542.6526 c -1.94629,-2.4743 -3.46213,-6.50802 -3.36852,-8.96382 l 0.17019,-4.46508 1.36701,4.26849 c 1.27255,3.97355 1.37877,4.01 1.5372,0.52762 0.21574,-4.742 3.58498,-7.0319 3.58498,-2.43654 0,1.87814 -0.76832,3.88963 -1.70739,4.47001 -2.58267,1.59618 -2.06924,3.90664 1.70739,7.68328 1.87814,1.87813 2.70223,3.41479 1.83132,3.41479 -0.87091,0 -3.17589,-2.02444 -5.12218,-4.49875 z m 130.49176,-0.62344 c 0.58038,-0.93906 1.39405,-1.70739 1.80816,-1.70739 0.41411,0 0.75293,0.76833 0.75293,1.70739 0,0.93907 -0.81368,1.7074 -1.80817,1.7074 -0.99448,0 -1.3333,-0.76833 -0.75292,-1.7074 z M 358.297,540.33529 c -0.57578,-0.93162 -0.333,-2.96948 0.53951,-4.52857 1.29067,-2.30632 1.58637,-1.99057 1.58637,1.69387 0,4.86739 -0.47674,5.50307 -2.12588,2.8347 z m 139.1443,1.15007 c 0,-2.08372 5.48843,-18.44043 6.01195,-17.91691 0.79761,0.79763 -4.26066,18.46071 -5.28669,18.46071 -0.39889,0 -0.72526,-0.2447 -0.72526,-0.5438 z m -118.73413,-6.39937 c -1.7519,-2.83463 -0.17947,-3.22771 2.27177,-0.56789 1.21085,1.31389 1.44828,2.38888 0.52761,2.38888 -0.92067,0 -2.18039,-0.81945 -2.79938,-1.82099 z m 7.76775,0.15862 c -2.02831,-1.28234 -2.11521,-2.04175 -0.42685,-3.73013 1.68837,-1.68842 2.11998,-1.55806 2.11998,0.64026 0,1.51814 0.9604,3.14782 2.13424,3.62147 1.17383,0.47364 1.36591,0.91007 0.42685,0.96983 -0.93907,0.0598 -2.85347,-0.61592 -4.25422,-1.5015 z m 10.65695,0.41577 c 1.64336,-0.39115 2.9997,-1.61525 3.01408,-2.72022 0.0192,-1.47507 0.37872,-1.45412 1.35265,0.0787 0.92196,1.45113 9.11508,2.25364 26.86532,2.63143 l 25.53882,0.54365 -29.87941,0.0888 c -16.43367,0.0488 -28.53483,-0.23124 -26.89146,-0.62238 z m -15.7934,-7.39114 c 0,-0.99449 0.76832,-1.33331 1.70739,-0.75293 0.93907,0.58038 1.7074,1.39405 1.7074,1.80816 0,0.41412 -0.76833,0.75293 -1.7074,0.75293 -0.93907,0 -1.70739,-0.81367 -1.70739,-1.80816 z m 98.45902,-15.12776 c -0.62919,-6.01979 -0.82173,-11.26732 -0.42789,-11.66118 1.05579,-1.05577 3.19684,17.73134 2.3204,20.36068 -0.41169,1.23506 -1.26332,-2.67972 -1.89251,-8.6995 z m -103.44641,3.98818 c 0.0819,-1.98902 0.4865,-2.39359 1.03155,-1.03155 0.49322,1.23252 0.43256,2.70514 -0.1348,3.27251 -0.56735,0.56735 -0.97089,-0.44109 -0.89676,-2.24096 z m 46.20942,-5.64631 c -1.61487,-1.02325 -1.74416,-1.82159 -0.42685,-2.63573 1.03932,-0.64234 1.88968,-0.26464 1.88968,0.83932 0,1.21379 1.66684,1.68857 4.21682,1.20111 2.31925,-0.44335 3.81056,-0.14872 3.31402,0.65466 -1.15521,1.86917 -6.00051,1.83719 -8.99367,-0.0594 z m 10.8535,-7.01687 c 0.58038,-0.93906 1.39405,-1.70739 1.80816,-1.70739 0.41411,0 0.75293,0.76833 0.75293,1.70739 0,0.93907 -0.81367,1.7074 -1.80816,1.7074 -0.99448,0 -1.3333,-0.76833 -0.75293,-1.7074 z m -14.28034,-7.11678 c -0.12788,-1.56656 -0.72976,-4.25571 -1.3375,-5.97588 -0.85298,-2.4143 -0.62532,-2.68576 0.99825,-1.19027 1.15678,1.06553 1.75866,3.75468 1.33751,5.97588 -0.42116,2.22122 -0.87037,2.75683 -0.99826,1.19027 z m -6.2786,-8.36336 c -0.61899,-1.00154 -0.75925,-2.18717 -0.31169,-2.63473 0.44755,-0.44756 1.2687,0.37188 1.82478,1.82098 1.15451,3.00862 0.17048,3.53783 -1.51309,0.81375 z m 17.6436,0.88576 c -0.6203,-0.9839 -0.42196,-2.90472 0.44076,-4.26849 1.90457,-3.01066 2.09725,-5.53416 0.34034,-4.4573 -0.7043,0.43166 -1.33658,-1.78923 -1.40506,-4.93535 -0.0685,-3.1461 0.50777,-5.32942 1.28055,-4.85182 0.77278,0.47761 1.40505,2.74385 1.40505,5.0361 0,2.29225 0.86241,4.16772 1.91646,4.16772 1.31902,0 1.3763,0.66532 0.18373,2.13424 -0.953,1.17384 -2.02551,3.6709 -2.38336,5.54903 -0.3648,1.91461 -1.14612,2.62888 -1.77847,1.62587 z m -70.50262,-4.18696 c -0.58038,-0.93906 -0.54061,-1.70739 0.0884,-1.70739 0.62898,0 -0.67024,-1.5111 -2.88718,-3.35799 -2.21693,-1.84688 -3.07038,-3.38354 -1.89654,-3.41478 1.17383,-0.0312 2.13424,0.62823 2.13424,1.46549 0,0.83727 1.92082,2.00439 4.26848,2.59361 2.34767,0.58924 4.26849,2.20918 4.26849,3.59989 0,2.8457 -4.35482,3.44411 -5.97588,0.82117 z m -9.39068,-10.05928 c 0,-0.82486 1.92082,-2.75831 4.26849,-4.29656 2.34767,-1.53826 4.26849,-2.5335 4.26849,-2.21167 0,0.32183 -1.92082,2.25528 -4.26849,4.29656 -2.34767,2.04127 -4.26849,3.03651 -4.26849,2.21167 z m 8.67177,-1.18106 c 0.0819,-1.98902 0.48651,-2.3936 1.03155,-1.03156 0.49322,1.23253 0.43256,2.70515 -0.1348,3.27252 -0.56735,0.56735 -0.97089,-0.44109 -0.89675,-2.24096 z m 119.51763,0 c 0.082,-1.98902 0.4865,-2.3936 1.03153,-1.03156 0.49322,1.23253 0.43257,2.70515 -0.13471,3.27252 -0.56737,0.56735 -0.97089,-0.44109 -0.89676,-2.24096 z m -109.40805,-2.51958 c 0,-0.99449 0.76832,-1.33331 1.70739,-0.75293 0.93907,0.58038 1.70739,1.39405 1.70739,1.80816 0,0.41411 -0.76832,0.75293 -1.70739,0.75293 -0.93907,0 -1.70739,-0.81367 -1.70739,-1.80816 z m 48.66074,0.10077 c 0.58038,-0.93907 2.35446,-1.69563 3.9424,-1.68125 2.48815,0.0225 2.53321,0.25489 0.32609,1.68125 -3.34372,2.16087 -5.60398,2.16087 -4.26849,0 z m 55.49032,-3.51556 c 0,-1.93355 0.73478,-3.06144 1.63284,-2.50641 0.89805,0.55503 1.2,2.13703 0.67102,3.51555 -1.35436,3.52938 -2.30386,3.11348 -2.30386,-1.00914 z m 5.93523,-4.59457 c -0.0224,-2.58243 1.08715,-5.84782 2.46556,-7.25642 2.22052,-2.26916 2.37113,-2.20459 1.3212,0.56649 -0.65176,1.72017 -1.18501,4.98556 -1.18501,7.25642 0,2.27087 -0.57625,4.12885 -1.28055,4.12885 -0.7043,0 -1.29883,-2.1129 -1.3212,-4.69534 z m 12.84611,1.28055 c 0,-0.93907 0.76833,-1.7074 1.7074,-1.7074 0.93906,0 1.70739,0.76833 1.70739,1.7074 0,0.93907 -0.76833,1.70739 -1.70739,1.70739 -0.93907,0 -1.7074,-0.76832 -1.7074,-1.70739 z m -23.12003,-3.52839 c -1.75189,-2.83462 -0.17947,-3.2277 2.27177,-0.56789 1.21085,1.31389 1.44828,2.38888 0.5276,2.38888 -0.92066,0 -2.18037,-0.81944 -2.79937,-1.82099 z m -6.22581,-6.17493 c 1.23252,-0.49322 2.70514,-0.43256 3.27251,0.1348 0.56735,0.56735 -0.44109,0.97089 -2.24095,0.89676 -1.98903,-0.0819 -2.3936,-0.48651 -1.03156,-1.03155 z m -85.90329,-2.8427 c -3.99333,-2.30006 -5.24551,-7.13735 -2.31622,-8.94775 1.38141,-0.85376 1.70069,-0.37094 0.98611,1.49124 -0.69745,1.8175 0.0747,3.11286 2.27093,3.80993 1.83022,0.58089 3.32767,2.15688 3.32767,3.5022 0,1.34531 -0.19208,2.3707 -0.42685,2.27862 -0.23477,-0.0921 -1.96351,-1.05248 -3.84164,-2.13424 z m 90.44583,-1.18771 c -0.55504,-0.89805 -0.5343,-2.40115 0.0461,-3.34022 1.57772,-2.5528 5.97588,-2.05893 5.97588,0.67103 0,2.89495 -4.61751,4.94164 -6.02196,2.66919 z m 31.76768,-0.92141 c 0.082,-1.98902 0.48651,-2.39359 1.03154,-1.03155 0.49321,1.23253 0.43257,2.70515 -0.13471,3.27251 -0.56737,0.56735 -0.9709,-0.44108 -0.89676,-2.24096 z m -13.65134,0.14228 c -0.22215,-0.93906 -0.67162,-3.12237 -0.99884,-4.85178 -0.32722,-1.72942 -1.02278,-3.57223 -1.5457,-4.09515 -0.7594,-0.7594 5.2613,-7.27331 6.72259,-7.27331 0.21088,0 1.43788,1.34457 2.72671,2.98794 2.12028,2.70357 2.06084,2.76652 -0.62445,0.6614 -3.45049,-2.70499 -4.16194,-1.57563 -5.23019,8.30242 -0.35543,3.28673 -0.82798,5.20755 -1.05012,4.26848 z M 365.97192,446.3143 c 0,-0.99448 0.76832,-1.33331 1.70739,-0.75293 0.93907,0.58038 1.7074,1.39405 1.7074,1.80816 0,0.41411 -0.76833,0.75293 -1.7074,0.75293 -0.93907,0 -1.70739,-0.81367 -1.70739,-1.80816 z m 12.81754,-1.58707 c -0.59817,-0.96785 0.0872,-1.25409 1.60663,-0.67102 2.95792,1.13506 3.49911,2.35886 1.04314,2.35886 -0.88364,0 -2.07604,-0.75953 -2.64977,-1.68784 z m 4.2564,-6.84913 c 0,-0.93907 1.72874,-1.69563 3.84164,-1.68125 3.1065,0.0211 3.35154,0.34286 1.28055,1.68125 -3.31023,2.13923 -5.12219,2.13923 -5.12219,0 z m 88.78452,-1.7074 c -2.071,-1.33838 -1.82596,-1.66011 1.28054,-1.68125 2.11291,-0.0144 3.84164,0.74218 3.84164,1.68125 0,2.13923 -1.81195,2.13923 -5.12218,0 z m -74.27166,-1.70739 c 0.58037,-0.93907 1.39404,-1.7074 1.80816,-1.7074 0.41411,0 0.75293,0.76833 0.75293,1.7074 0,0.93906 -0.81368,1.70739 -1.80816,1.70739 -0.99449,0 -1.33331,-0.76833 -0.75293,-1.70739 z m 82.38178,-1.17696 c -1.64336,-0.42945 -2.98794,-1.42089 -2.98794,-2.20318 0,-0.7823 1.53666,-1.02051 3.41479,-0.52937 1.87814,0.49114 3.41479,1.57171 3.41479,2.40125 0,0.82954 -0.19208,1.41913 -0.42685,1.3102 -0.23477,-0.10894 -1.77142,-0.54944 -3.41479,-0.9789 z m -105.64064,-2.66468 c -0.11496,-0.23477 -0.40158,-4.07641 -0.63692,-8.53697 -0.31367,-5.94519 0.19791,-8.11013 1.91643,-8.11013 1.28937,0 2.34431,0.81367 2.34431,1.80816 0,0.99449 -0.85064,1.28244 -1.89032,0.63988 -2.31977,-1.4337 -0.1624,6.423 2.17827,7.93284 1.819,1.17332 0.0228,6.69307 -2.17802,6.69307 -0.8386,0 -1.61879,-0.19208 -1.73375,-0.42685 z m -19.31624,-3.48843 c 0.64118,-1.68387 1.59589,-2.63147 2.12158,-2.10578 0.52568,0.52568 10e-4,1.90339 -1.16578,3.06157 -1.68625,1.67371 -1.88237,1.47759 -0.9558,-0.95579 z m 27.20854,-2.9143 c 0.58038,-0.93907 1.39405,-1.7074 1.80816,-1.7074 0.41412,0 0.75294,0.76833 0.75294,1.7074 0,0.93907 -0.81368,1.70739 -1.80816,1.70739 -0.99449,0 -1.33331,-0.76832 -0.75294,-1.70739 z m -22.73537,-4.57412 c 0.29658,-2.50426 1.49965,-4.86857 2.67349,-5.25401 3.18783,-1.04676 2.65968,7.55376 -0.53925,8.7813 -2.08194,0.79892 -2.55418,0.0184 -2.13424,-3.52729 z m 20.17428,-0.4473 c 0,-0.88365 0.75953,-2.07604 1.68784,-2.64977 0.96785,-0.59817 1.25409,0.0872 0.67103,1.60663 -1.13507,2.95792 -2.35887,3.49911 -2.35887,1.04314 z M 354.45073,406.2913 c 0.0189,-3.75627 0.3686,-5.09189 0.777,-2.96804 0.40839,2.12385 0.39289,5.19716 -0.0345,6.82958 -0.42735,1.63242 -0.76149,-0.10528 -0.74254,-3.86154 z m 3.85275,-9.39067 c -1.29553,-4.02529 -1.44985,-4.07393 -2.70856,-0.8537 -1.08207,2.76832 -1.35748,2.36427 -1.45476,-2.13424 -0.1454,-6.72329 4.38539,-7.7473 5.99005,-1.35382 1.46593,5.84072 -0.1263,9.62511 -1.82673,4.34176 z m 120.43592,0.0491 c -3.20611,-1.98149 -1.43568,-9.30899 2.4273,-10.0461 2.79359,-0.53306 3.00708,-0.21545 1.26561,1.88288 -1.76567,2.12752 -1.45972,2.40271 1.94725,1.75142 4.88967,-0.93472 7.49107,3.73127 3.13641,5.62559 -4.57368,1.9896 -6.54388,2.16609 -8.77657,0.78621 z m 18.13277,-2.89476 c -1.54207,-1.54205 -1.44463,-7.00898 0.14223,-7.98379 0.7043,-0.43264 1.36236,1.44283 1.46235,4.16772 0.19607,5.3431 0.11507,5.53577 -1.60463,3.81607 z m -135.72726,-10.2316 c 0.71958,-3.73648 5.6807,-4.26509 5.6807,-0.60528 0,1.39574 -1.41434,2.81008 -3.14299,3.14299 -2.28176,0.43943 -2.97714,-0.25595 -2.53771,-2.53771 z m 105.47325,-5.08718 c -0.94209,-2.47791 -1.39608,-4.82211 -1.00884,-5.20934 0.38723,-0.38723 1.52125,1.64014 2.52004,4.50528 2.2203,6.36913 0.88006,6.99353 -1.5112,0.70406 z m 23.62029,0.003 c 0.93237,-4.87735 1.44908,-4.99068 3.68718,-0.80873 1.36898,2.55793 1.08599,3.39386 -1.36591,4.03505 -2.4762,0.64754 -2.93887,0.004 -2.32127,-3.22632 z m -106.923,-0.62031 c 0,-2.34767 0.38753,-3.30808 0.86119,-2.13425 0.47365,1.17384 0.47365,3.09466 0,4.26849 -0.47366,1.17383 -0.86119,0.21342 -0.86119,-2.13424 z m -27.31831,-1.7074 c 0,-2.34767 0.38753,-3.30808 0.86118,-2.13424 0.47366,1.17383 0.47366,3.09465 0,4.26848 -0.47365,1.17384 -0.86118,0.21343 -0.86118,-2.13424 z m 21.97883,2.56109 c 0,-0.93906 0.74479,-2.85988 1.6551,-4.26848 0.91031,-1.4086 1.65511,-1.79277 1.65511,-0.8537 0,0.93907 -0.7448,2.85989 -1.65511,4.26849 -0.91031,1.4086 -1.6551,1.79276 -1.6551,0.85369 z m 96.48842,-4.15051 c -0.54028,-0.87417 -0.20145,-2.07201 0.75293,-2.66185 0.95438,-0.58984 1.73524,0.12539 1.73524,1.58941 0,2.99909 -1.02454,3.44068 -2.48817,1.07244 z m 18.05278,-2.96627 c -0.10893,-1.09703 -0.6953,-3.40201 -1.30305,-5.12218 -0.85735,-2.42667 -0.63015,-2.68993 1.01382,-1.1747 1.16535,1.07408 1.75172,3.37906 1.30305,5.12218 -0.44867,1.74311 -0.90489,2.27173 -1.01382,1.1747 z m -30.50431,-1.81398 c -1.17383,-0.40946 -2.13424,-1.54285 -2.13424,-2.51865 0,-1.1761 0.76192,-1.14183 2.26023,0.10166 1.65054,1.36982 2.80197,1.3341 4.26848,-0.13242 1.36613,-1.36613 2.00826,-1.41154 2.00826,-0.14206 0,2.25713 -3.46827,3.71505 -6.40273,2.69145 z m -72.72526,-6.51293 c 0.52011,-1.35539 1.63348,-2.03924 2.47414,-1.51968 2.11735,1.30859 1.92246,1.934 -0.94565,3.03459 -1.65037,0.63331 -2.15928,0.12891 -1.52849,-1.51491 z m 96.32195,-0.24894 c -0.066,-2.05748 0.64831,-4.21573 1.58738,-4.7961 2.01947,-1.24811 2.01947,0.42261 0,5.12218 -1.41473,3.29226 -1.47169,3.28056 -1.58738,-0.32608 z m -21.56296,-1.43561 c 4.33212,-3.27666 7.05091,-3.23739 3.75922,0.0543 -1.4086,1.4086 -3.57639,2.53666 -4.81729,2.50679 -1.41559,-0.0341 -1.02137,-0.98828 1.05807,-2.56109 z m -11.56668,-0.23027 c -0.62605,-0.62604 -1.13827,-1.9322 -1.13827,-2.90257 0,-1.06986 0.79526,-0.96905 2.02041,0.25611 1.11125,1.11123 1.62346,2.41739 1.13827,2.90257 -0.48519,0.48519 -1.39437,0.36994 -2.02041,-0.25611 z m -51.10801,-2.48839 c 1.15818,-1.16687 2.53589,-1.69147 3.06157,-1.16578 0.52569,0.52568 -0.42191,1.48039 -2.10578,2.12157 -2.43338,0.92658 -2.6295,0.73046 -0.95579,-0.95579 z m -31.38135,-4.03529 c -1.79251,-3.86528 -1.68473,-4.07467 1.28054,-2.4877 1.78079,0.95305 3.2378,2.85828 3.2378,4.23384 0,3.84971 -2.34323,2.94415 -4.51834,-1.74614 z m 104.93448,3.08081 c 1.23252,-0.49322 2.70515,-0.43256 3.27251,0.1348 0.56735,0.56735 -0.44109,0.97089 -2.24095,0.89676 -1.98903,-0.0819 -2.3936,-0.48651 -1.03156,-1.03155 z m -4.80205,-1.70296 c 0,-0.95208 -1.72873,-2.56479 -3.84163,-3.5838 -3.82001,-1.84232 -3.82103,-1.8534 -0.18268,-1.96831 3.42364,-0.10813 6.89975,4.40772 4.9182,6.38927 -0.49164,0.49163 -0.89389,0.11491 -0.89389,-0.83716 z m -61.03935,-1.72243 c 1.64337,-0.42946 4.33251,-0.42946 5.97588,0 1.64337,0.42945 0.29879,0.78083 -2.98794,0.78083 -3.28674,0 -4.63131,-0.35138 -2.98794,-0.78083 z m 23.47667,-0.6308 c 0,-0.99449 0.76833,-1.33331 1.7074,-0.75294 0.93907,0.58038 1.70739,1.39405 1.70739,1.80816 0,0.41412 -0.76832,0.75294 -1.70739,0.75294 -0.93907,0 -1.7074,-0.81368 -1.7074,-1.80816 z m 13.91978,0.26183 c -1.24444,-0.7691 0.24876,-2.29311 3.99887,-4.08141 4.66518,-2.22467 5.98488,-2.35578 5.98488,-0.59458 0,2.86391 -7.34759,6.30523 -9.98375,4.67599 z m 25.3503,-4.53032 c 0,-1.46402 0.76833,-2.187 1.70739,-1.60663 0.93907,0.58038 1.7074,1.77821 1.7074,2.66186 0,0.88364 -0.76833,1.60663 -1.7074,1.60663 -0.93906,0 -1.70739,-1.19784 -1.70739,-2.66186 z m -66.86986,-0.19449 c -3.4598,-0.9163 -5.55344,-5.58698 -2.65288,-5.91828 7.04051,-0.80415 16.58735,-0.42177 16.59017,0.6645 0.002,0.7043 -0.81034,1.28055 -1.80482,1.28055 -0.99449,0 -1.33474,0.766 -0.75612,1.70223 0.69923,1.13138 -0.44942,1.13138 -3.42518,0 -5.80477,-2.20697 -11.88678,-2.15141 -6.38915,0.0584 6.17694,2.48283 5.11863,3.98195 -1.56202,2.21263 z m 52.6984,-2.84555 c -0.60411,-1.57428 -0.25947,-2.83508 0.77495,-2.83508 1.22883,0 1.13943,-0.87168 -0.26265,-2.56109 -1.34034,-1.615 -1.45478,-2.56109 -0.30982,-2.56109 2.91059,0 3.84153,2.80123 2.30834,6.94588 -1.20309,3.25225 -1.59096,3.40849 -2.51082,1.01138 z m 17.55381,-2.02046 c -1.80434,-2.17411 -1.69872,-2.42395 0.64464,-1.52473 1.54142,0.5915 2.80259,1.76158 2.80259,2.60018 0,2.19564 -0.98836,1.88729 -3.44723,-1.07545 z m -97.28905,-2.10507 c 0,-1.92134 13.24223,-8.95391 16.86008,-8.95391 4.05388,0 0.25406,2.9799 -5.1876,4.06823 -3.00989,0.60198 -6.86752,2.35695 -8.57251,3.89995 -1.70498,1.54299 -3.09997,1.98657 -3.09997,0.98573 z m 49.93274,-0.84379 c 0.38658,-1.17383 2.56351,-2.34891 4.83762,-2.61128 4.00408,-0.46197 4.03001,-0.39452 0.82048,2.13424 -4.01325,3.162 -6.61456,3.38132 -5.6581,0.47704 z m -33.71249,-1.28054 c 0.58037,-0.93907 2.20772,-1.7074 3.61632,-1.7074 1.4086,0 2.08624,0.76833 1.50586,1.7074 -0.58038,0.93906 -2.20772,1.70739 -3.61632,1.70739 -1.4086,0 -2.08624,-0.76833 -1.50586,-1.70739 z m 68.29578,-3.41479 c -2.78375,-1.19622 -2.88125,-1.48957 -0.52762,-1.58739 1.58794,-0.066 3.36203,0.64832 3.94241,1.58739 1.21337,1.96329 1.15404,1.96329 -3.41479,0 z m -37.02912,-6.28853 c 1.23252,-0.49322 2.70515,-0.43256 3.27251,0.1348 0.56735,0.56735 -0.44108,0.97089 -2.24096,0.89675 -1.98902,-0.0819 -2.3936,-0.4865 -1.03155,-1.03155 z m -4.3427,-3.43166 c 1.66123,-0.43289 3.96622,-0.40442 5.12218,0.0633 1.15596,0.46771 -0.20324,0.8219 -3.02044,0.7871 -2.8172,-0.0348 -3.76298,-0.41746 -2.10174,-0.85036 z"
         id="path912" />
    </g>
  </g>
</svg>
