<?xml version="1.0" encoding="UTF-8" standalone="no"?>
<svg
   height="638.601"
   viewBox="0 0 494.836 638.601"
   width="494.836"
   version="1.1"
   id="svg16"
   sodipodi:docname="about-right-shape.svg"
   inkscape:version="1.1.2 (0a00cf5339, 2022-02-04)"
   inkscape:export-filename="/home/adipurnm/Documents/Work/Freelance/landing page/saaspal-free-lite/saaspal-free-lite/assets/img/about/about-right-shape.png"
   inkscape:export-xdpi="96"
   inkscape:export-ydpi="96"
   xmlns:inkscape="http://www.inkscape.org/namespaces/inkscape"
   xmlns:sodipodi="http://sodipodi.sourceforge.net/DTD/sodipodi-0.dtd"
   xmlns:xlink="http://www.w3.org/1999/xlink"
   xmlns="http://www.w3.org/2000/svg"
   xmlns:svg="http://www.w3.org/2000/svg">
  <defs
     id="defs20">
    <linearGradient
       inkscape:collect="always"
       id="linearGradient2193">
      <stop
         style="stop-color:#e99398;stop-opacity:1;"
         offset="0"
         id="stop2189" />
      <stop
         style="stop-color:#e99398;stop-opacity:0;"
         offset="1"
         id="stop2191" />
    </linearGradient>
    <linearGradient
       inkscape:collect="always"
       xlink:href="#linearGradient2193"
       id="linearGradient2195"
       x1="1082.7556"
       y1="1608.5037"
       x2="657.31787"
       y2="1811.7051"
       gradientUnits="userSpaceOnUse" />
    <linearGradient
       inkscape:collect="always"
       xlink:href="#linearGradient2193"
       id="linearGradient4724"
       gradientUnits="userSpaceOnUse"
       x1="1082.7556"
       y1="1608.5037"
       x2="657.31787"
       y2="1811.7051" />
  </defs>
  <sodipodi:namedview
     id="namedview18"
     pagecolor="#ffffff"
     bordercolor="#666666"
     borderopacity="1.0"
     inkscape:pageshadow="2"
     inkscape:pageopacity="0.0"
     inkscape:pagecheckerboard="0"
     showgrid="false"
     inkscape:zoom="0.5793915"
     inkscape:cx="494.4843"
     inkscape:cy="379.70871"
     inkscape:window-width="1920"
     inkscape:window-height="990"
     inkscape:window-x="0"
     inkscape:window-y="28"
     inkscape:window-maximized="1"
     inkscape:current-layer="svg16" />
  <clipPath
     id="a">
    <path
       d="m319.3 0c176.345 0-67.066 208.923 88.593 319.3s87.752 319.3-88.593 319.3-319.3-142.955-319.3-319.3 142.956-319.3 319.3-319.3z"
       transform="translate(297.858 1341)"
       id="path2" />
  </clipPath>
  <linearGradient
     id="b"
     gradientUnits="objectBoundingBox"
     x1=".5"
     x2=".5"
     y2="1">
    <stop
       offset="0"
       stop-color="#dddff9"
       id="stop5" />
    <stop
       offset="1"
       stop-color="#5864ff"
       id="stop7" />
  </linearGradient>
  <path
     d="m 175.5363,0 c -176.34500112,0 67.066,208.923 -88.593001,319.3 -155.659,110.377 -87.75200012,319.3 88.593001,319.3 176.345,0 319.3,-142.955 319.3,-319.3 0,-176.345 -142.956,-319.3 -319.3,-319.3 z"
     fill="#5864ff"
     id="path10"
     style="fill:#ef3945;fill-opacity:1" />
  <g
     clip-path="url(#a)"
     transform="matrix(-1,0,0,1,792.6943,-1341)"
     id="g14"
     style="fill:url(#linearGradient2195);fill-opacity:1">
    <path
       d="M 319.3,0 C 495.645,0 252.234,208.923 407.893,319.3 563.552,429.677 495.645,638.6 319.3,638.6 142.955,638.6 0,495.645 0,319.3 0,142.955 142.956,0 319.3,0 Z"
       fill="url(#b)"
       opacity="0.3"
       transform="rotate(180,396.347,989.8005)"
       id="path12"
       style="fill:url(#linearGradient4724);fill-opacity:1" />
  </g>
</svg>
